# Blender 3.4.0
# www.blender.org
mtllib block.mtl
o Cube
v 1.000000 -0.250000 -1.000000
v 1.000000 -0.250000 1.000000
v -1.000000 -0.250000 -1.000000
v -1.000000 -0.250000 1.000000
v 0.906537 0.250000 -0.906537
v 1.000000 0.199886 -1.000000
v 0.906537 0.250000 0.906537
v 1.000000 0.226634 1.000000
v -0.906537 0.250000 -0.906537
v -1.000000 0.199886 -1.000000
v -0.906537 0.250000 0.906537
v -1.000000 0.199886 1.000000
vn -0.0000 -0.0000 1.0000
vn -1.0000 -0.0000 -0.0000
vn -0.0000 -1.0000 -0.0000
vn -0.0000 1.0000 -0.0000
vn 1.0000 -0.0000 -0.0000
vn -0.0129 0.9669 0.2547
vn 0.4725 0.8813 -0.0000
vn -0.4725 0.8813 -0.0000
vn -0.0000 0.8813 -0.4725
vn -0.0000 -0.0000 -1.0000
vn -0.0000 0.8813 0.4725
vn 0.2547 0.9669 -0.0129
vt 0.375000 0.500000
vt 0.375000 0.750000
vt 0.125000 0.500000
vt 0.375000 0.250000
vt 0.375000 1.000000
vt 0.375000 0.000000
vt 0.125000 0.750000
vt 0.636683 0.511683
vt 0.625000 0.493313
vt 0.599943 0.500000
vt 0.636683 0.738317
vt 0.625000 0.750000
vt 0.613317 0.750000
vt 0.863317 0.511683
vt 0.878344 0.496656
vt 0.599943 0.250000
vt 0.863317 0.738317
vt 0.599943 1.000000
vt 0.599943 0.000000
vt 0.878344 0.753344
s 0
usemtl Material
f 2/2/1 12/18/1 4/5/1
f 12/19/2 3/4/2 4/6/2
f 1/1/3 4/7/3 3/3/3
f 9/14/4 7/11/4 5/8/4
f 6/10/5 2/2/5 1/1/5
f 7/11/6 12/20/6 8/12/6
f 7/11/7 6/10/7 5/8/7
f 9/14/8 12/20/8 11/17/8
f 5/8/9 10/15/9 9/14/9
f 10/16/10 1/1/10 3/4/10
f 2/2/1 8/13/1 12/18/1
f 12/19/2 10/16/2 3/4/2
f 1/1/3 2/2/3 4/7/3
f 9/14/4 11/17/4 7/11/4
f 6/10/5 8/13/5 2/2/5
f 7/11/11 11/17/11 12/20/11
f 7/11/12 8/13/12 6/10/12
f 9/14/8 10/15/8 12/20/8
f 5/8/9 6/9/9 10/15/9
f 10/16/10 6/10/10 1/1/10
